<svg xmlns="http://www.w3.org/2000/svg" width="3000" height="2000" xml:space="preserve"><g style="font-size:1416.79px;line-height:1.25;font-family:sans-serif;letter-spacing:0;stroke-width:7.37912" aria-label="ЁЭТе"><path style="stroke-width:7.37912" d="M1218.27 1540.7c239.437 0 386.783-243.688 433.537-478.875l117.594-585.134 68.006-26.92 4.25-26.918c-51.004-1.417-104.842-2.834-131.761-2.834-209.685 0-484.543 90.675-484.543 283.358 0 53.838 22.669 80.757 65.173 80.757 39.67 0 65.172-24.085 65.172-63.756 0-26.919-9.917-62.338-9.917-90.674 0-130.345 201.184-155.847 300.359-155.847L1566.8 891.81c-211.102 58.088-525.63 281.941-525.63 497.293 0 93.508 60.923 151.597 177.1 151.597zm338.612-602.136-32.586 174.265c-22.669 143.096-97.758 366.949-264.94 366.949-80.757 0-103.425-53.838-103.425-110.51 0-164.347 187.016-362.698 400.951-430.704z" transform="matrix(1.45887 0 0 1.33971 -635.972 -319.086)"/></g></svg>