<svg xmlns="http://www.w3.org/2000/svg" xml:space="preserve" height="2000" width="3000"><defs><path id="c" d="M732.255 168.982h1722.006v1794.427H732.255z"/><path id="b" d="M772.489 225.309h1520.837v1617.398H772.489z"/><path id="a" d="M667.881 128.748h1673.726V1810.52H667.881z"/><path id="d" d="M659.834 96.561H2333.56v1705.913H659.834z"/></defs><g style="font-size:1466.67px;line-height:1.25;font-family:sans-serif;letter-spacing:0;white-space:pre;shape-inside:url(#d)" transform="matrix(1.15697 0 0 1.57381 -192.52 -557.021)" aria-label="𝒦"><path style="font-size:1466.67px" d="M1830.27 505.89c-71.867 66.001-162.8 104.135-227.334 104.135-32.267 0-74.8-19.067-126.134-45.467-101.2-51.334-149.6-71.867-208.267-71.867-152.533 0-259.6 111.467-259.6 221.467 0 108.534 86.533 184.8 203.867 184.8 98.267 0 173.067-61.6 221.467-156.933l-26.4-13.2c-48.4 77.733-114.4 126.133-192.134 126.133-92.4 0-146.667-61.6-146.667-137.867 0-77.733 79.2-148.133 173.067-148.133 41.067 0 95.334 20.533 149.6 49.867 77.734 42.533 123.2 64.533 181.868 64.533 14.666 0 39.6-2.933 52.8-7.333l1.466 4.4c-180.4 148.133-231.733 280.134-354.934 498.667-111.467 196.534-186.267 284.534-308 284.534-88 0-149.6-46.933-155.467-92.4h2.933c8.8 14.667 29.333 19.067 42.533 19.067 41.067 0 64.534-35.2 64.534-71.867 0-42.533-30.8-73.333-68.934-73.333-58.666 0-92.4 52.8-92.4 108.533 0 79.2 82.134 155.467 209.734 155.467 173.067 0 346.134-83.6 532.401-492.8 8.8 16.133 20.534 22 49.867 22 57.2 0 58.667 32.266 58.667 45.466 0 93.867-124.667 184.8-124.667 300.667 0 71.867 67.467 120.267 136.4 120.267 89.467 0 187.734-77.733 296.267-211.2l-27.866-22c-108.534 124.667-190.667 189.2-247.867 189.2-29.334 0-46.934-19.067-46.934-49.867 0-60.133 111.467-164.267 111.467-264 0-45.467-20.533-80.667-70.4-130.534v-2.933c123.2-39.6 211.2-114.4 309.467-291.868 39.6-71.866 70.4-159.867 98.267-181.867h1.467c1.466 48.4 39.6 66 66 66 41.067 0 61.6-29.333 61.6-66 0-41.066-33.733-60.133-74.8-60.133-77.734 0-174.534 117.333-310.934 316.8-86.534 127.6-132 170.134-193.6 183.334-19.067-17.6-39.6-20.533-61.6-20.533 89.466-155.467 161.333-310.934 318.267-429.734z"/></g></svg>