<svg xmlns="http://www.w3.org/2000/svg" width="3000" height="2000" xml:space="preserve"><g style="font-size:1416.79px;line-height:1.25;font-family:sans-serif;letter-spacing:0;stroke-width:7.37912" aria-label="𝒫"><path style="stroke-width:7.37912" d="M1115.032 1245.386c216.768 0 334.362-211.101 379.7-402.368 211.1-1.417 450.539-126.094 450.539-337.196 0-164.348-144.513-208.268-337.197-208.268l8.501-41.087-12.75-11.334-117.594 56.671c-168.598 22.669-400.952 134.595-400.952 290.442 0 46.754 21.252 65.173 60.922 65.173 59.505 0 66.589-43.921 73.673-100.593 18.418-141.679 124.678-189.85 253.605-211.101l-100.592 528.462c-24.085 121.844-82.173 310.277-205.434 310.277-93.508 0-59.505-106.259-133.178-106.259-31.17 0-65.173 19.835-65.173 69.423 0 72.256 72.256 97.758 145.93 97.758zm388.2-444.872 92.091-454.79c128.928 0 218.186 41.088 218.186 174.266 0 177.099-154.43 273.44-310.277 280.524z" transform="matrix(1.35947 0 0 1.52722 -459.087 -173.208)"/></g></svg>