<svg xmlns="http://www.w3.org/2000/svg" width="3000" height="2000" xml:space="preserve"><g style="font-size:2058.62px;line-height:1.25;font-family:sans-serif;letter-spacing:0;stroke-width:10.722" aria-label="𝒯"><path style="stroke-width:10.722" d="M1111.32 1595.269c337.614 0 609.352-310.852 687.58-712.283l107.047-545.534c39.114 10.293 265.562 96.755 343.79 96.755 49.407 0 100.872-32.938 131.752-74.11l107.048-142.045-41.173-30.88-72.051 78.228c-20.586 22.645-53.524 37.055-86.462 37.055-61.759 0-255.27-47.348-362.317-72.052l14.41-59.7-20.586-16.468-170.866 82.344c-271.738 10.293-644.348 154.397-644.348 374.67 0 65.875 34.997 102.93 90.58 102.93 90.579 0 100.872-94.696 104.99-146.162 18.527-197.627 207.92-261.445 432.31-261.445l-111.166 576.414c-49.407 255.269-144.104 625.82-419.959 625.82-177.041 0-96.755-154.396-212.038-154.396-53.524 0-96.755 32.938-96.755 100.872 0 102.931 102.931 139.987 218.214 139.987z" transform="scale(.90212 1.1085)"/></g></svg>